<svg xmlns="http://www.w3.org/2000/svg" viewBox="0 0 100 100">
  <defs>
    <linearGradient id="lampGradient" x1="0%" y1="0%" x2="100%" y2="100%">
      <stop offset="0%" style="stop-color:#6366f1;stop-opacity:1" />
      <stop offset="100%" style="stop-color:#06b6d4;stop-opacity:1" />
    </linearGradient>
  </defs>
  
  <!-- Genie Lamp -->
  <path d="M30 45 Q20 45 20 55 L20 65 Q20 70 25 70 L75 70 Q80 70 80 65 L80 55 Q80 45 70 45 
           M45 45 Q45 35 50 30 Q55 35 55 45
           M35 45 L35 40 Q35 35 40 35 L60 35 Q65 35 65 40 L65 45" 
        fill="url(#lampGradient)" stroke="none"/>
  
  <!-- Sparkle -->
  <circle cx="75" cy="25" r="3" fill="#06b6d4"/>
  <path d="M75 15 L75 35 M65 25 L85 25" stroke="#06b6d4" stroke-width="2"/>
</svg>
